<svg role="img" viewBox="0 0 24 24" xmlns="http://www.w3.org/2000/svg"><title>Bluesky</title><path d="M12 0C5.3723 0 0 5.3723 0 12s5.3723 12 12 12 12-5.3723 12-12S18.6277 0 12 0zm3.7416 16.0004c-.113.0748-.3107.1687-.6107.2527-1.0766.284-2.3818.4366-3.1309.4366-.749 0-2.0542-.1526-3.1308-.4379-.3001-.0827-.4978-.1766-.6108-.2527a.1466.1466 0 0 1-.0628-.12v-2.3543a.1401.1401 0 0 1 .086-.131c.344-.1508.6587-.3297.9668-.5326-.1868-.125-.3616-.24-.527-.3466-1.3054-1.0752-1.9804-2.6215-1.9804-3.3946 0-.9401.6337-2.1857 1.5664-3.041C9.2111 5.327 10.3607 4.8312 12 4.8312c1.6393 0 2.7889.4958 3.6914 1.3477.9327.8553 1.5664 2.1009 1.5664 3.041 0 .7731-.675 2.3194-1.9804 3.3946-.1654.1066-.3402.2216-.527.3466.3055.203.6228.3819.9668.5326.052.02.086.0734.086.131v2.3542c0 .048-.0229.0934-.0628.12z"/></svg>